# xmcd
#
# Track frame offsets: 
#        150
#        10705
#        23290
#        34338
#        47257
#        55036
#        64533
#        75056
#        85461
#        95363
#
# Disc length: 1427 seconds
#
# Revision: 5
# Processed by: cddbd v1.5.2PL0 Copyright (c) Steve Scherf et al.
# Submitted via: ExactAudioCopy v0.99pb4
#
DISCID=5b05910a
DTITLE=Various Artist - Greatest Hits of the 60s Vol. 2
DYEAR=1900
DGENRE=Pop
TTITLE0=Gene Chandler - Duke Of Earl
TTITLE1=The Association - Windy
TTITLE2=Paula and Paula - Hey Paula
TTITLE3=John Fred and His Playboy Band - Judy In Disguise (With Glasses)
TTITLE4=The Ventures - Hawaii Five-O
TTITLE5=The Vogues - Five O'Clock World
TTITLE6=Soul Survivors - Expressway To Your Heart
TTITLE7=The Vogues - You're The One
TTITLE8=Betty Everett - It's In His Kiss (The Shoop Shoop Song)
TTITLE9=The Shirelles - Will You Love Me Tomorrow
EXTD=
EXTT0=
EXTT1=
EXTT2=
EXTT3=
EXTT4=
EXTT5=
EXTT6=
EXTT7=
EXTT8=
EXTT9=
PLAYORDER=
